<?xml version="1.0" encoding="UTF-8"?>
<svg width="457px" height="249px" viewBox="0 0 457 249" version="1.1" xmlns="http://www.w3.org/2000/svg" xmlns:xlink="http://www.w3.org/1999/xlink">
    <!-- Generator: Sketch 48.2 (47327) - http://www.bohemiancoding.com/sketch -->
    <title>eye</title>
    <desc>Created with Sketch.</desc>
    <defs></defs>
    <g id="Page-1" stroke="none" stroke-width="1" fill="none" fill-rule="evenodd">
        <g id="eye" fill="#FFFFFF" fill-rule="nonzero">
            <path d="M448.947,114.475 C448.025,113.307 425.892,85.542 387.947,57.665 C337.242,20.412 282.07,0.721 228.396,0.721 C174.724,0.721 119.552,20.412 68.845,57.665 C30.901,85.541 8.768,113.307 7.845,114.475 L0,124.397 L7.846,134.32 C8.769,135.488 30.902,163.254 68.846,191.131 C119.553,228.383 174.725,248.074 228.397,248.074 C282.07,248.074 337.242,228.383 387.947,191.131 C425.892,163.254 448.025,135.488 448.947,134.32 L456.795,124.397 L448.947,114.475 Z M228.396,211.039 C180.622,211.039 141.754,172.172 141.754,124.397 C141.754,116.912 142.708,109.646 144.501,102.713 L124.72,99.384 C122.782,107.409 121.754,115.785 121.754,124.397 C121.754,155.257 134.936,183.093 155.958,202.584 C128.897,192.588 105.886,178.561 88.519,165.875 C67.003,150.16 50.878,134.266 41.685,124.397 C50.882,114.525 67.005,98.633 88.519,82.919 C105.886,70.233 128.898,56.206 155.958,46.209 L169.228,61.167 C184.726,46.655 205.54,37.755 228.396,37.755 C276.17,37.755 315.037,76.622 315.037,124.397 C315.037,172.172 276.17,211.039 228.396,211.039 Z M368.273,165.875 C350.904,178.561 327.894,192.588 300.834,202.584 C321.855,183.094 335.037,155.258 335.037,124.396 C335.037,93.534 321.855,65.699 300.834,46.208 C327.895,56.205 350.904,70.232 368.273,82.918 C389.789,98.633 405.914,114.527 415.107,124.395 C405.91,134.269 389.787,150.162 368.273,165.875 Z" id="Shape"></path>
            <path d="M173.261,107.555 C171.635,112.884 170.754,118.537 170.754,124.398 C170.754,156.232 196.561,182.04 228.396,182.04 C260.23,182.04 286.037,156.233 286.037,124.398 C286.037,92.563 260.23,66.756 228.396,66.756 C212.89,66.756 198.825,72.89 188.464,82.85 L216.896,114.898 L173.261,107.555 Z" id="Shape"></path>
        </g>
    </g>
</svg>